<?xml version="1.0" encoding="UTF-8"?>
<svg id="_레이어_1" data-name="레이어 1" xmlns="http://www.w3.org/2000/svg" viewBox="0 0 140 25">
  <defs>
    <style>
      .cls-1 {
        fill: #242E40;
      }
    </style>
  </defs>
  <path class="cls-1" d="M2.67,21.49c.13,1.26,.32,1.88,1.71,1.88,1.53,0,1.99-2.98,2.25-4.27l2.74-13.94h3.94l-2.77,14.13c-.67,3.42-2.92,5.26-6.29,5.26-1.53,0-2.7-.22-3.6-1-.98-.86-.72-1.93-.04-2.48,.68-.55,1.98-.45,2.06,.43ZM10.38,0h3.94l-.71,3.6h-3.94l.71-3.6Z"/>
  <path class="cls-1" d="M27.3,18.91h-4.3l-2.66-5.28-1.67,1.57-.73,3.7h-3.82L17.83,0h3.82l-2.61,13.27L27.68,5.16h1.6l-6.1,5.78,4.12,7.98Z"/>
  <path class="cls-1" d="M36.99,0l-3.02,15.38c-.46,2.36-.11,2.62,1.02,2.6l-.18,.93h-2.96c-.6,0-2.43-.38-1.91-3.06L33.05,0h3.94Z"/>
  <path class="cls-1" d="M51.06,10.17l-1.01,5.16c-.46,2.36-.59,2.62,.78,2.6l-.18,.93c-4.34,.72-4.84-.67-4.73-1.43-1.26,1.41-2.26,1.89-4.28,1.96-2.78,.05-5.26-1.07-4.61-4.37,.67-3.41,3.66-4.9,8.03-4.9h2.08l.1-.5c.46-2.46,.36-3.8-1.38-3.8-2.24,0-2.67,.6-3.5,2.25-.43,.86-1.63,1.26-2.26,.93-.65-.33-1.02-1.24,.02-2.41,1.41-1.57,3.93-1.91,5.98-1.91,3.63,0,5.68,1.86,4.96,5.49Zm-9.07,8.02c2.51,0,3.81-1.27,4.53-4.94l.38-1.93h-1.93c-2.48,0-3.54,1.36-3.98,3.63-.47,2.39,.1,3.25,1.01,3.25Z"/>
  <path class="cls-1" d="M56.41,12.27c-1.57-.86-2.19-1.72-1.79-3.89,.52-2.77,3.42-3.7,6.43-3.7,2.03,0,4.24,.43,4.99,1.96,.6,1.22-.12,2.05-.87,2.36-.83,.36-1.9,.05-1.97-.81-.13-1.67-.3-2.36-2.4-2.36-1.06,.02-2.13,.76-2.47,2.27-.19,.86,.16,1.6,1.04,1.98,1.03,.45,2.14,1.03,3.35,1.55,1.54,.67,2.89,1.67,2.5,3.82-.57,3.03-3.97,3.94-7.13,3.94-2.03,0-4.55-.43-5.28-2.03-.57-1.22,.12-2.05,.87-2.36,.83-.36,1.9-.05,1.97,.81,.12,1.67,.38,2.44,2.7,2.44,1.05-.03,2.81-.72,3.05-2.53,.19-1.48-2.61-2.15-4.98-3.44Z"/>
  <path class="cls-1" d="M67.83,12.03c1-5.09,4.15-7.4,8.3-7.12,1.37,.1,2.2,.72,2.67,1.6l1.28-6.52h3.82l-3.01,15.33c-.46,2.36-.59,2.62,.54,2.6l-.18,.93c-3.75,.62-4.47-.31-4.52-1.08-.83,.95-1.91,1.6-3.44,1.6-4.2,0-6.46-2.27-5.46-7.35Zm5.68,6.21c2.91,0,3.66-3.46,4.2-6.19,.53-2.72,.86-5.97-1.81-5.97-2.2,0-3.36,2.05-4.13,5.97-.77,3.92-.45,6.19,1.75,6.19Z"/>
  <path class="cls-1" d="M88.7,4.06c-.34,.88-1.47,1.41-2.28,1.05-.68-.29-.95-1.24,.03-2.46,1.45-1.79,4.18-2.41,6.21-2.41,3.96,0,5.92,1.93,5.24,5.28-.47,2.27-1.57,4.01-4.74,7.11l-5.63,5.09h8l-.24,1.19h-12.46l.24-1.19,7.37-6.9c2.97-2.96,3.5-4.35,3.81-5.3,.64-1.93,.44-4.06-1.82-4.13-2.25,0-3.13,1.08-3.73,2.67Z"/>
  <path class="cls-1" d="M108.13,.24c4.75,0,6.6,3.37,5.38,9.58-1.22,6.21-4.39,9.57-9.14,9.57s-6.6-3.37-5.38-9.57C100.21,3.6,103.38,.24,108.13,.24Zm-5.22,9.58c-.8,4.08-.95,8.38,1.7,8.38s4.19-4.3,4.99-8.38,.95-8.38-1.7-8.38-4.19,4.3-4.99,8.38Z"/>
  <path class="cls-1" d="M124.57,.24c4.75,0,6.6,3.37,5.38,9.58-1.22,6.21-4.39,9.57-9.14,9.57s-6.6-3.37-5.38-9.57C116.65,3.6,119.82,.24,124.57,.24Zm-5.22,9.58c-.8,4.08-.95,8.38,1.7,8.38s4.19-4.3,4.99-8.38,.95-8.38-1.7-8.38-4.19,4.3-4.99,8.38Z"/>
  <path class="cls-1" d="M132.06,5.16l.26-1.31c2.84-.48,4.31-3.13,4.31-3.13h3.37l-3.57,18.19h-3.94l2.95-15.02s-1.26,1.05-3.38,1.26Z"/>
</svg>